<svg width="1440" height="1024" viewBox="0 0 1440 1024" fill="none" xmlns="http://www.w3.org/2000/svg">
<line x1="20.5" y1="2.20478e-08" x2="20.5" y2="1033" stroke="#4D4D4D"/>
<line x1="446.5" y1="2.20478e-08" x2="446.5" y2="1033" stroke="#4D4D4D"/>
<line x1="943.5" y1="2.20478e-08" x2="943.5" y2="1033" stroke="#4D4D4D"/>
<line x1="233.5" y1="2.20478e-08" x2="233.5" y2="1033" stroke="#4D4D4D"/>
<line x1="659.5" y1="2.20478e-08" x2="659.5" y2="1033" stroke="#4D4D4D"/>
<line x1="1156.5" y1="2.20478e-08" x2="1156.5" y2="1033" stroke="#4D4D4D"/>
<line x1="91.5" y1="2.20478e-08" x2="91.5" y2="1033" stroke="#4D4D4D"/>
<line x1="517.5" y1="2.20478e-08" x2="517.5" y2="1033" stroke="#4D4D4D"/>
<line x1="1014.5" y1="2.20478e-08" x2="1014.5" y2="1033" stroke="#4D4D4D"/>
<line x1="304.5" y1="2.20478e-08" x2="304.5" y2="1033" stroke="#4D4D4D"/>
<line x1="730.5" y1="2.20478e-08" x2="730.5" y2="1033" stroke="#4D4D4D"/>
<line x1="1227.5" y1="2.20478e-08" x2="1227.5" y2="1033" stroke="#4D4D4D"/>
<line x1="162.5" y1="2.20478e-08" x2="162.5" y2="1033" stroke="#4D4D4D"/>
<line x1="588.5" y1="2.20478e-08" x2="588.5" y2="1033" stroke="#4D4D4D"/>
<line x1="1085.5" y1="2.20478e-08" x2="1085.5" y2="1033" stroke="#4D4D4D"/>
<line x1="375.5" y1="2.20478e-08" x2="375.5" y2="1033" stroke="#4D4D4D"/>
<line x1="872.5" y1="2.20478e-08" x2="872.5" y2="1033" stroke="#4D4D4D"/>
<line x1="801.5" y1="2.20478e-08" x2="801.5" y2="1033" stroke="#4D4D4D"/>
<line x1="1298.5" y1="2.20478e-08" x2="1298.5" y2="1033" stroke="#4D4D4D"/>
<line x1="1369.5" y1="2.20478e-08" x2="1369.5" y2="1033" stroke="#4D4D4D"/>
<line x1="71.5" y1="2.20478e-08" x2="71.5" y2="1033" stroke="#4D4D4D"/>
<line x1="0.5" y1="2.20478e-08" x2="0.499955" y2="1033" stroke="#4D4D4D"/>
<line x1="497.5" y1="2.20478e-08" x2="497.5" y2="1033" stroke="#4D4D4D"/>
<line x1="994.5" y1="2.20478e-08" x2="994.5" y2="1033" stroke="#4D4D4D"/>
<line x1="284.5" y1="2.20478e-08" x2="284.5" y2="1033" stroke="#4D4D4D"/>
<line x1="710.5" y1="2.20478e-08" x2="710.5" y2="1033" stroke="#4D4D4D"/>
<line x1="1207.5" y1="2.20478e-08" x2="1207.5" y2="1033" stroke="#4D4D4D"/>
<line x1="142.5" y1="2.20478e-08" x2="142.5" y2="1033" stroke="#4D4D4D"/>
<line x1="568.5" y1="2.20478e-08" x2="568.5" y2="1033" stroke="#4D4D4D"/>
<line x1="1065.5" y1="2.20478e-08" x2="1065.5" y2="1033" stroke="#4D4D4D"/>
<line x1="355.5" y1="2.20478e-08" x2="355.5" y2="1033" stroke="#4D4D4D"/>
<line x1="781.5" y1="2.20478e-08" x2="781.5" y2="1033" stroke="#4D4D4D"/>
<line x1="1278.5" y1="2.20478e-08" x2="1278.5" y2="1033" stroke="#4D4D4D"/>
<line x1="213.5" y1="2.20478e-08" x2="213.5" y2="1033" stroke="#4D4D4D"/>
<line x1="639.5" y1="2.20478e-08" x2="639.5" y2="1033" stroke="#4D4D4D"/>
<line x1="1136.5" y1="2.20478e-08" x2="1136.5" y2="1033" stroke="#4D4D4D"/>
<line x1="426.5" y1="2.20478e-08" x2="426.5" y2="1033" stroke="#4D4D4D"/>
<line x1="923.5" y1="2.20478e-08" x2="923.5" y2="1033" stroke="#4D4D4D"/>
<line x1="852.5" y1="2.20478e-08" x2="852.5" y2="1033" stroke="#4D4D4D"/>
<line x1="1349.5" y1="2.20478e-08" x2="1349.5" y2="1033" stroke="#4D4D4D"/>
<line x1="1420.5" y1="2.20478e-08" x2="1420.5" y2="1033" stroke="#4D4D4D"/>
</svg>
